<svg width="56" height="34" viewBox="0 0 56 34" fill="none" xmlns="http://www.w3.org/2000/svg">
<path fill-rule="evenodd" clip-rule="evenodd" d="M37.0125 1.69831C37.0112 0.760357 36.217 0 35.2385 0C34.2599 0 33.4677 0.760357 33.4689 1.69831L33.4975 23.7763C33.4988 24.7142 34.293 25.4746 35.2715 25.4746C36.2501 25.4746 37.0423 24.7142 37.0411 23.7763L37.0125 1.69831ZM11.1554 10.1898H13.2815C16.315 10.1898 18.7771 12.5469 18.7809 15.4546L18.7917 23.7763C18.7929 24.7142 18.0007 25.4746 17.0221 25.4746C16.0436 25.4746 15.2494 24.7142 15.2481 23.7763L15.2373 15.4546C15.236 14.4228 14.3623 13.5864 13.286 13.5864H11.1598L11.173 23.7763C11.1743 24.7142 10.382 25.4746 9.40346 25.4746C8.42493 25.4746 7.63069 24.7142 7.62947 23.7763L7.61625 13.5864H5.49011C4.41373 13.5864 3.54223 14.4228 3.54357 15.4546L3.55437 23.7763C3.55559 24.7142 2.76332 25.4746 1.78479 25.4746C0.80626 25.4746 0.0120195 24.7142 0.0108024 23.7763L4.34146e-06 15.4546C-0.00376873 12.5469 2.45226 10.1898 5.4857 10.1898H11.1554ZM40.0465 18.1719L40.0434 15.7942C40.0396 12.8866 42.4956 10.5295 45.5291 10.5295H51.5531C53.9995 10.5295 55.9851 12.4304 55.9881 14.7753L55.9921 17.8322C55.9935 18.9577 55.0428 19.8702 53.8686 19.8702H43.5922L43.5929 20.3797C43.5942 21.4114 44.4679 22.2478 45.5443 22.2478H54.226C55.2045 22.2478 55.9988 23.0082 56 23.9461C56.0012 24.8841 55.209 25.6444 54.2304 25.6444H45.5487C42.5152 25.6444 40.0531 23.2873 40.0493 20.3797L40.0465 18.1719ZM20.2358 12.704C19.7649 11.8813 20.0784 10.8492 20.9361 10.3988C21.7938 9.94837 22.8709 10.2502 23.3418 11.0729L30.42 22.9853C31.1343 24.1874 31.5108 25.5464 31.5126 26.9291L31.5196 32.3017C31.5208 33.2397 30.7286 34 29.7501 34C28.7716 34 27.9773 33.2397 27.9761 32.3017L27.9691 26.9026C27.9681 26.1068 27.751 25.3248 27.3393 24.6333L20.2358 12.704ZM52.4441 14.7753L52.4463 16.4736H43.5874L43.5865 15.7942C43.5852 14.7625 44.4567 13.9261 45.533 13.9261H51.5571C52.0464 13.9261 52.4435 14.3063 52.4441 14.7753Z" fill="white"/>
</svg>
